<svg width="471" height="481" viewBox="0 0 471 481" fill="none" xmlns="http://www.w3.org/2000/svg">
<ellipse cx="235.309" cy="240.5" rx="235.309" ry="240.5" fill="#111136"/>
<path d="M311.865 138.242C319.585 123.091 337.963 116.984 352.914 124.602C367.865 132.22 373.727 150.678 366.008 165.829C364.424 168.938 362.389 171.665 360.029 173.971C358.374 175.815 355.343 178.977 352.31 181C347.809 184 328.81 200 328.81 200L317.81 195C317.799 194.949 315.144 182.493 314.31 179C312.996 173.5 309.31 160 309.31 160L309.437 160.03C307.628 152.996 308.287 145.264 311.865 138.242Z" fill="url(#paint0_linear_30_213)"/>
<path d="M316.81 204L324.81 207.5L321.31 215.5L312.81 211.5L316.81 204Z" fill="#812595"/>
<path d="M230.31 115C242.324 115 253.946 116.682 264.953 119.823C256.365 117.974 247.451 117 238.31 117C168.722 117 112.31 173.412 112.31 243C112.31 300.573 150.923 349.125 203.665 364.176C146.874 351.949 104.31 301.446 104.31 241C104.31 171.412 160.722 115 230.31 115Z" fill="url(#paint1_linear_30_213)"/>
<path d="M186.81 248C205.895 248 222.108 260.291 227.969 277.39C230.241 276.492 232.718 276 235.31 276C246.355 276 255.31 284.954 255.31 296C255.31 296.591 255.282 297.175 255.231 297.753C260.346 298.881 265.001 301.233 268.874 304.485C271.676 303.523 274.681 303 277.81 303C290.8 303 301.685 312.008 304.563 324.118C305.469 324.041 306.384 324 307.31 324C324.983 324 339.31 338.327 339.31 356C339.31 358.051 339.114 360.056 338.745 362H143.31V294H143.383C143.336 293.173 143.31 292.339 143.31 291.5C143.31 267.476 162.785 248 186.81 248Z" fill="url(#paint2_linear_30_213)"/>
<path d="M313.31 221.5C313.31 221.5 290.81 277.5 276.31 300C261.81 322.5 250.31 361.5 250.31 361.5H166.133C166.133 361.5 172.81 345.5 235.81 300C298.81 254.5 313.31 221.5 313.31 221.5Z" fill="url(#paint3_linear_30_213)"/>
<path d="M164.81 294C179.713 294 192.638 302.359 199.036 314.586C201.235 314.201 203.499 314 205.81 314C225.376 314 241.532 328.407 243.985 347.06C244.421 347.02 244.863 347 245.31 347C253.042 347 259.31 353.044 259.31 360.5C259.31 361.007 259.28 361.507 259.224 362H101.91C101.518 360.067 101.31 358.06 101.31 356C101.31 340.821 112.526 328.462 126.52 328.013C128.539 308.9 144.911 294 164.81 294Z" fill="url(#paint4_linear_30_213)"/>
<defs>
<linearGradient id="paint0_linear_30_213" x1="338.937" y1="121.323" x2="338.937" y2="200" gradientUnits="userSpaceOnUse">
<stop stop-color="#F7527B"/>
<stop offset="1" stop-color="#A642C0"/>
</linearGradient>
<linearGradient id="paint1_linear_30_213" x1="160.31" y1="146" x2="184.631" y2="364.176" gradientUnits="userSpaceOnUse">
<stop stop-color="#442FAF"/>
<stop offset="1" stop-color="#241767" stop-opacity="0.25"/>
</linearGradient>
<linearGradient id="paint2_linear_30_213" x1="173.81" y1="255.5" x2="211.81" y2="362" gradientUnits="userSpaceOnUse">
<stop stop-color="#1DAAED"/>
<stop offset="1" stop-color="#243DBC"/>
</linearGradient>
<linearGradient id="paint3_linear_30_213" x1="239.721" y1="221.5" x2="239.721" y2="361.5" gradientUnits="userSpaceOnUse">
<stop stop-color="#FF96DA"/>
<stop offset="0.5" stop-color="#DD4F97"/>
<stop offset="1" stop-color="#6036C5"/>
</linearGradient>
<linearGradient id="paint4_linear_30_213" x1="180.31" y1="294" x2="180.31" y2="362" gradientUnits="userSpaceOnUse">
<stop stop-color="#20A9ED"/>
<stop offset="1" stop-color="#243CB7"/>
</linearGradient>
</defs>
</svg>
