<svg width="700" height="500" viewBox="0 0 700 500" fill="none" xmlns="http://www.w3.org/2000/svg">
<path d="M325.555 145.242C333.275 130.091 351.653 123.984 366.604 131.602C381.555 139.22 387.417 157.678 379.698 172.829C378.114 175.938 376.079 178.665 373.719 180.971C372.064 182.815 369.033 185.977 365.999 188C361.499 191 342.499 207 342.499 207L331.499 202C331.489 201.949 328.834 189.493 327.999 186C326.686 180.5 322.999 167 322.999 167L323.127 167.03C321.318 159.996 321.977 152.264 325.555 145.242Z" fill="white"/>
<path d="M330.5 211L338.5 214.5L335 222.5L326.5 218.5L330.5 211Z" fill="white"/>
<path d="M244 122C256.015 122 267.637 123.682 278.644 126.823C270.055 124.974 261.141 124 252 124C182.412 124 126 180.412 126 250C126 307.573 164.614 356.125 217.355 371.176C160.564 358.949 118 308.446 118 248C118 178.412 174.412 122 244 122Z" fill="url(#paint0_linear_30_103)"/>
<path d="M292.812 310.031C305.219 310.614 315.473 319.418 318.254 331.118C319.159 331.041 320.075 331 321 331C338.673 331 353 345.327 353 363C353 365.051 352.804 367.056 352.436 369H276.934C276.977 368.506 277 368.006 277 367.5C277 362.951 275.234 358.856 272.361 355.772C273.237 353.255 274.225 350.496 275.311 347.586C279.854 335.409 286.022 320.827 292.812 310.031ZM200.5 255C219.585 255 235.799 267.291 241.659 284.39C243.932 283.492 246.408 283 249 283C255.319 283 260.952 285.932 264.617 290.508C259.267 294.78 253.46 299.205 247.158 303.757C240.155 308.815 233.839 313.513 228.144 317.872C225.352 317.302 222.461 317 219.5 317C217.933 317 216.385 317.084 214.86 317.248C207.406 305.103 193.903 297 178.5 297C170.661 297 163.312 299.1 157 302.766V301H157.073C157.026 300.173 157 299.339 157 298.5C157 274.476 176.476 255 200.5 255Z" fill="white"/>
<path d="M327 228.5C326.975 228.563 304.492 284.513 290 307C281.369 320.392 273.801 339.631 269.089 353.011C266.732 351.46 263.985 350.439 261.041 350.113C257.868 335.558 247.081 323.837 233.033 319.176C238.043 315.375 243.517 311.321 249.5 307C312.453 261.534 326.978 228.55 327 228.5Z" fill="white"/>
<path d="M178.5 301C193.404 301 206.328 309.359 212.727 321.586C214.925 321.201 217.189 321 219.5 321C239.067 321 255.222 335.407 257.676 354.06C258.112 354.02 258.553 354 259 354C266.732 354 273 360.044 273 367.5C273 368.007 272.971 368.507 272.914 369H115.601C115.209 367.067 115 365.06 115 363C115 347.821 126.216 335.462 140.21 335.013C142.229 315.9 158.601 301 178.5 301Z" fill="white"/>
<path d="M332.829 322V263.703H346.923V310.829H368.784V322H332.829ZM380.889 322V263.703H395.142V322H380.889ZM410.05 322V263.703H444.724V274.834H424.144V288.247H442.081V298.457H424.144V322H410.05ZM454.306 274.874V263.703H499.31V274.874H483.975V322H469.721V274.874H454.306ZM508.772 306.425V303.262H521.624V305.264C521.624 308.04 522.345 310.108 523.786 311.47C525.254 312.804 527.296 313.472 529.912 313.472C532.421 313.472 534.357 312.858 535.718 311.63C537.079 310.402 537.76 308.734 537.76 306.625C537.76 304.863 536.986 303.395 535.438 302.221C533.89 301.02 530.993 299.725 526.749 298.337C520.717 296.362 516.326 293.906 513.576 290.97C510.854 288.007 509.492 284.243 509.492 279.679C509.492 274.5 511.308 270.416 514.938 267.427C518.568 264.41 523.426 262.902 529.512 262.902C535.518 262.902 540.376 264.277 544.086 267.026C547.796 269.749 549.652 273.633 549.652 278.678V281.2H536.999V279.719C536.999 277.477 536.372 275.728 535.117 274.474C533.89 273.192 532.101 272.552 529.752 272.552C527.27 272.552 525.468 273.099 524.347 274.193C523.226 275.288 522.665 276.729 522.665 278.518C522.665 280.146 523.479 281.507 525.108 282.602C526.763 283.696 529.832 284.937 534.317 286.325C540.082 288.114 544.286 290.503 546.929 293.492C549.572 296.482 550.893 300.432 550.893 305.344C550.893 310.789 548.984 315.073 545.167 318.196C541.35 321.293 536.332 322.841 530.113 322.841C523.866 322.841 518.741 321.453 514.738 318.677C510.76 315.901 508.772 311.817 508.772 306.425Z" fill="white"/>
<path d="M450.556 353.883V331.875H456.908V354.469C456.908 357.109 457.431 359 458.478 360.141C459.525 361.266 460.962 361.828 462.79 361.828C464.603 361.828 466.025 361.266 467.056 360.141C468.103 359 468.626 357.109 468.626 354.469V331.875H474.954V353.883C474.954 358.195 473.845 361.391 471.626 363.469C469.423 365.531 466.486 366.562 462.814 366.562C459.095 366.562 456.118 365.531 453.884 363.469C451.665 361.391 450.556 358.195 450.556 353.883ZM480.099 366V331.875H492.592C496.17 331.875 498.888 332.875 500.748 334.875C502.623 336.875 503.56 339.547 503.56 342.891C503.56 346.219 502.631 348.891 500.771 350.906C498.912 352.922 496.162 353.93 492.521 353.93H486.451V366H480.099ZM486.451 349.289H491.537C493.646 349.289 495.115 348.688 495.943 347.484C496.787 346.281 497.209 344.773 497.209 342.961C497.209 341.164 496.787 339.672 495.943 338.484C495.115 337.281 493.646 336.68 491.537 336.68H486.451V349.289ZM506.948 366V331.875H519.018C522.487 331.875 525.182 332.828 527.104 334.734C529.026 336.625 529.987 339.148 529.987 342.305C529.987 345.523 528.994 348.117 527.01 350.086C525.041 352.039 522.362 353.016 518.971 353.016H513.299V366H506.948ZM513.299 348.516H518.127C520.158 348.516 521.573 347.961 522.369 346.852C523.182 345.727 523.596 344.289 523.612 342.539C523.612 340.773 523.205 339.352 522.393 338.273C521.58 337.18 520.158 336.625 518.127 336.609H513.299V348.516ZM524.455 366L517.096 350.625L523.19 349.523L531.463 366H524.455ZM534.03 366V331.875H542.608L550.671 354.562C550.842 355.094 550.999 355.617 551.139 356.133C551.296 356.633 551.428 357.164 551.538 357.727H551.655C551.764 357.164 551.889 356.633 552.03 356.133C552.186 355.617 552.35 355.094 552.522 354.562L560.585 331.875H569.233V366H562.975V343.523C562.975 342.992 562.975 342.406 562.975 341.766C562.991 341.125 563.022 340.547 563.069 340.031H562.928C562.835 340.562 562.702 341.148 562.53 341.789C562.358 342.414 562.186 342.992 562.014 343.523L554.186 366H548.585L540.733 343.523C540.561 342.992 540.382 342.375 540.194 341.672C540.007 340.953 539.889 340.406 539.842 340.031H539.702C539.733 340.406 539.757 340.953 539.772 341.672C539.803 342.375 539.819 342.992 539.819 343.523V366H534.03Z" fill="white"/>
<defs>
<linearGradient id="paint0_linear_30_103" x1="174" y1="153" x2="200" y2="363" gradientUnits="userSpaceOnUse">
<stop stop-color="white"/>
<stop offset="1" stop-color="white" stop-opacity="0"/>
</linearGradient>
</defs>
</svg>
