<svg width="700" height="500" viewBox="0 0 700 500" fill="none" xmlns="http://www.w3.org/2000/svg">
<path d="M336.829 308V249.703H350.923V296.829H372.784V308H336.829ZM384.889 308V249.703H399.142V308H384.889ZM414.05 308V249.703H448.724V260.834H428.144V274.247H446.081V284.457H428.144V308H414.05ZM458.306 260.874V249.703H503.31V260.874H487.975V308H473.721V260.874H458.306ZM512.772 292.425V289.262H525.624V291.264C525.624 294.04 526.345 296.108 527.786 297.47C529.254 298.804 531.296 299.472 533.912 299.472C536.421 299.472 538.357 298.858 539.718 297.63C541.079 296.402 541.76 294.734 541.76 292.625C541.76 290.863 540.986 289.395 539.438 288.221C537.89 287.02 534.993 285.725 530.749 284.337C524.717 282.362 520.326 279.906 517.576 276.97C514.854 274.007 513.492 270.243 513.492 265.679C513.492 260.5 515.308 256.416 518.938 253.427C522.568 250.41 527.426 248.902 533.512 248.902C539.518 248.902 544.376 250.277 548.086 253.026C551.796 255.749 553.652 259.633 553.652 264.678V267.2H540.999V265.719C540.999 263.477 540.372 261.728 539.117 260.474C537.89 259.192 536.101 258.552 533.752 258.552C531.27 258.552 529.468 259.099 528.347 260.193C527.226 261.288 526.665 262.729 526.665 264.518C526.665 266.146 527.479 267.507 529.108 268.602C530.763 269.696 533.832 270.937 538.317 272.325C544.082 274.114 548.286 276.503 550.929 279.492C553.572 282.482 554.893 286.432 554.893 291.344C554.893 296.789 552.984 301.073 549.167 304.196C545.35 307.293 540.332 308.841 534.113 308.841C527.866 308.841 522.741 307.453 518.738 304.677C514.76 301.901 512.772 297.817 512.772 292.425Z" fill="white"/>
<path d="M452.556 339.883V317.875H458.908V340.469C458.908 343.109 459.431 345 460.478 346.141C461.525 347.266 462.962 347.828 464.79 347.828C466.603 347.828 468.025 347.266 469.056 346.141C470.103 345 470.626 343.109 470.626 340.469V317.875H476.954V339.883C476.954 344.195 475.845 347.391 473.626 349.469C471.423 351.531 468.486 352.562 464.814 352.562C461.095 352.562 458.118 351.531 455.884 349.469C453.665 347.391 452.556 344.195 452.556 339.883ZM482.099 352V317.875H494.592C498.17 317.875 500.888 318.875 502.748 320.875C504.623 322.875 505.56 325.547 505.56 328.891C505.56 332.219 504.631 334.891 502.771 336.906C500.912 338.922 498.162 339.93 494.521 339.93H488.451V352H482.099ZM488.451 335.289H493.537C495.646 335.289 497.115 334.688 497.943 333.484C498.787 332.281 499.209 330.773 499.209 328.961C499.209 327.164 498.787 325.672 497.943 324.484C497.115 323.281 495.646 322.68 493.537 322.68H488.451V335.289ZM508.948 352V317.875H521.018C524.487 317.875 527.182 318.828 529.104 320.734C531.026 322.625 531.987 325.148 531.987 328.305C531.987 331.523 530.994 334.117 529.01 336.086C527.041 338.039 524.362 339.016 520.971 339.016H515.299V352H508.948ZM515.299 334.516H520.127C522.158 334.516 523.573 333.961 524.369 332.852C525.182 331.727 525.596 330.289 525.612 328.539C525.612 326.773 525.205 325.352 524.393 324.273C523.58 323.18 522.158 322.625 520.127 322.609H515.299V334.516ZM526.455 352L519.096 336.625L525.19 335.523L533.463 352H526.455ZM536.03 352V317.875H544.608L552.671 340.562C552.842 341.094 552.999 341.617 553.139 342.133C553.296 342.633 553.428 343.164 553.538 343.727H553.655C553.764 343.164 553.889 342.633 554.03 342.133C554.186 341.617 554.35 341.094 554.522 340.562L562.585 317.875H571.233V352H564.975V329.523C564.975 328.992 564.975 328.406 564.975 327.766C564.991 327.125 565.022 326.547 565.069 326.031H564.928C564.835 326.562 564.702 327.148 564.53 327.789C564.358 328.414 564.186 328.992 564.014 329.523L556.186 352H550.585L542.733 329.523C542.561 328.992 542.382 328.375 542.194 327.672C542.007 326.953 541.889 326.406 541.842 326.031H541.702C541.733 326.406 541.757 326.953 541.772 327.672C541.803 328.375 541.819 328.992 541.819 329.523V352H536.03Z" fill="#3299FA"/>
<path d="M329.556 148.242C337.276 133.091 355.653 126.984 370.604 134.602C385.555 142.22 391.418 160.678 383.698 175.829C382.114 178.938 380.08 181.665 377.72 183.971C376.065 185.815 373.034 188.977 370 191C365.5 194 346.5 210 346.5 210L335.5 205C335.489 204.949 332.834 192.493 332 189C330.686 183.5 327 170 327 170L327.128 170.03C325.318 162.996 325.978 155.264 329.556 148.242Z" fill="url(#paint0_linear_30_179)"/>
<path d="M334.5 214L342.5 217.5L339 225.5L330.5 221.5L334.5 214Z" fill="#812595"/>
<path d="M248 125C260.015 125 271.637 126.682 282.644 129.823C274.055 127.974 265.141 127 256 127C186.412 127 130 183.412 130 253C130 310.573 168.614 359.125 221.355 374.176C164.564 361.949 122 311.446 122 251C122 181.412 178.412 125 248 125Z" fill="url(#paint1_linear_30_179)"/>
<path d="M204.5 258C223.585 258 239.799 270.291 245.659 287.39C247.932 286.492 250.408 286 253 286C264.046 286 273 294.954 273 306C273 306.591 272.972 307.175 272.922 307.753C278.037 308.881 282.691 311.233 286.564 314.485C289.366 313.523 292.372 313 295.5 313C308.491 313 319.376 322.008 322.254 334.118C323.159 334.041 324.075 334 325 334C342.673 334 357 348.327 357 366C357 368.051 356.804 370.056 356.436 372H161V304H161.073C161.026 303.173 161 302.339 161 301.5C161 277.476 180.476 258 204.5 258Z" fill="url(#paint2_linear_30_179)"/>
<path d="M331 231.5C331 231.5 308.5 287.5 294 310C279.5 332.5 268 371.5 268 371.5H183.823C183.823 371.5 190.5 355.5 253.5 310C316.5 264.5 331 231.5 331 231.5Z" fill="url(#paint3_linear_30_179)"/>
<path d="M182.5 304C197.404 304 210.328 312.359 216.727 324.586C218.925 324.201 221.189 324 223.5 324C243.067 324 259.222 338.407 261.676 357.06C262.112 357.02 262.553 357 263 357C270.732 357 277 363.044 277 370.5C277 371.007 276.971 371.507 276.914 372H119.601C119.209 370.067 119 368.06 119 366C119 350.821 130.216 338.462 144.21 338.013C146.229 318.9 162.601 304 182.5 304Z" fill="url(#paint4_linear_30_179)"/>
<defs>
<linearGradient id="paint0_linear_30_179" x1="356.627" y1="131.323" x2="356.627" y2="210" gradientUnits="userSpaceOnUse">
<stop stop-color="#F7527B"/>
<stop offset="1" stop-color="#A642C0"/>
</linearGradient>
<linearGradient id="paint1_linear_30_179" x1="178" y1="156" x2="202.322" y2="374.176" gradientUnits="userSpaceOnUse">
<stop stop-color="#442FAF"/>
<stop offset="1" stop-color="#241767" stop-opacity="0.25"/>
</linearGradient>
<linearGradient id="paint2_linear_30_179" x1="191.5" y1="265.5" x2="229.5" y2="372" gradientUnits="userSpaceOnUse">
<stop stop-color="#1DAAED"/>
<stop offset="1" stop-color="#243DBC"/>
</linearGradient>
<linearGradient id="paint3_linear_30_179" x1="257.412" y1="231.5" x2="257.412" y2="371.5" gradientUnits="userSpaceOnUse">
<stop stop-color="#FF96DA"/>
<stop offset="0.5" stop-color="#DD4F97"/>
<stop offset="1" stop-color="#6036C5"/>
</linearGradient>
<linearGradient id="paint4_linear_30_179" x1="198" y1="304" x2="198" y2="372" gradientUnits="userSpaceOnUse">
<stop stop-color="#20A9ED"/>
<stop offset="1" stop-color="#243CB7"/>
</linearGradient>
</defs>
</svg>
