<svg xmlns="http://www.w3.org/2000/svg" viewBox="0 0 1200 800" width="1200" height="800">
  <!-- Launch Event Gallery Placeholder -->
  <rect width="1200" height="800" fill="#0a0a0a"/>
  
  <!-- Horizon line -->
  <rect x="0" y="600" width="1200" height="200" fill="#1a1a1a"/>
  
  <!-- Launch tower -->
  <rect x="550" y="350" width="100" height="250" fill="#333" stroke="#444" stroke-width="2"/>
  <rect x="540" y="340" width="120" height="20" fill="#444"/>
  
  <!-- Rocket on pad -->
  <path d="M600 200 L620 240 L620 400 L640 430 L640 460 L620 440 L620 460 L600 480 L580 460 L580 440 L560 460 L560 430 L580 400 L580 240 Z" 
        fill="#e0e0e0" stroke="#ccc" stroke-width="1"/>
  
  <!-- Crowd silhouettes -->
  <ellipse cx="200" cy="650" rx="30" ry="50" fill="#222"/>
  <ellipse cx="280" cy="660" rx="25" ry="40" fill="#222"/>
  <ellipse cx="350" cy="655" rx="28" ry="45" fill="#222"/>
  <ellipse cx="900" cy="650" rx="30" ry="50" fill="#222"/>
  <ellipse cx="980" cy="660" rx="25" ry="40" fill="#222"/>
  <ellipse cx="1050" cy="655" rx="28" ry="45" fill="#222"/>
  
  <!-- Sky gradient effect -->
  <rect x="0" y="0" width="1200" height="300" fill="url(#skyGradient)" opacity="0.3"/>
  <defs>
    <linearGradient id="skyGradient" x1="0%" y1="0%" x2="0%" y2="100%">
      <stop offset="0%" style="stop-color:#000033"/>
      <stop offset="100%" style="stop-color:#000000"/>
    </linearGradient>
  </defs>
  
  <!-- Stars -->
  <circle cx="100" cy="80" r="1.5" fill="#fff" opacity="0.8"/>
  <circle cx="300" cy="120" r="1" fill="#fff" opacity="0.6"/>
  <circle cx="500" cy="60" r="2" fill="#fff" opacity="0.9"/>
  <circle cx="700" cy="100" r="1" fill="#fff" opacity="0.7"/>
  <circle cx="900" cy="80" r="1.5" fill="#fff" opacity="0.8"/>
  <circle cx="1100" cy="140" r="1" fill="#fff" opacity="0.6"/>
  
  <text x="600" y="750" text-anchor="middle" font-family="Arial, sans-serif" font-size="24" fill="#666">Launch Event Photo</text>
</svg>
