<svg xmlns="http://www.w3.org/2000/svg" viewBox="0 0 800 600" width="800" height="600">
  <!-- ASCENT Mission Placeholder -->
  <rect width="800" height="600" fill="#0a0a0a"/>
  
  <!-- Stars -->
  <circle cx="150" cy="100" r="1.5" fill="#fff" opacity="0.7"/>
  <circle cx="300" cy="150" r="1" fill="#fff" opacity="0.5"/>
  <circle cx="450" cy="80" r="2" fill="#fff" opacity="0.8"/>
  <circle cx="600" cy="120" r="1" fill="#fff" opacity="0.6"/>
  <circle cx="700" cy="200" r="1.5" fill="#fff" opacity="0.7"/>
  <circle cx="50" cy="180" r="1" fill="#fff" opacity="0.5"/>
  
  <!-- Rocket silhouette -->
  <path d="M400 150 L420 180 L420 350 L440 380 L440 420 L420 400 L420 420 L400 440 L380 420 L380 400 L360 420 L360 380 L380 350 L380 180 Z" 
        fill="#1a1a1a" stroke="#333" stroke-width="2"/>
  
  <!-- Flame -->
  <path d="M400 440 L420 480 L400 520 L380 480 Z" fill="#ff6600" opacity="0.6"/>
  <path d="M400 450 L410 475 L400 500 L390 475 Z" fill="#ffcc00" opacity="0.8"/>
  
  <!-- Launch pad -->
  <rect x="320" y="420" width="160" height="10" fill="#333"/>
  
  <!-- Mission label -->
  <text x="400" y="520" text-anchor="middle" font-family="Arial, sans-serif" font-size="48" font-weight="bold" fill="#ffffff" letter-spacing="8">ASCENT</text>
  <text x="400" y="560" text-anchor="middle" font-family="Arial, sans-serif" font-size="16" fill="#888888" letter-spacing="2">ADVANCED SOUNDING ROCKET</text>
</svg>
