<svg xmlns="http://www.w3.org/2000/svg" viewBox="0 0 1200 800" width="1200" height="800">
  <!-- Team Working Gallery Placeholder -->
  <rect width="1200" height="800" fill="#111"/>
  
  <!-- Work table -->
  <rect x="200" y="400" width="800" height="20" fill="#333"/>
  <rect x="220" y="420" width="20" height="180" fill="#2a2a2a"/>
  <rect x="960" y="420" width="20" height="180" fill="#2a2a2a"/>
  
  <!-- Equipment on table -->
  <rect x="300" y="350" width="150" height="50" rx="5" fill="#1a1a1a" stroke="#444"/>
  <rect x="500" y="320" width="200" height="80" rx="5" fill="#1a1a1a" stroke="#444"/>
  <circle cx="600" cy="360" r="30" fill="#222" stroke="#555"/>
  <rect x="750" y="360" width="100" height="40" rx="3" fill="#1a1a1a" stroke="#444"/>
  
  <!-- Person silhouettes -->
  <g transform="translate(350, 300)">
    <circle cx="0" cy="-60" r="25" fill="#333"/>
    <ellipse cx="0" cy="20" rx="35" ry="50" fill="#333"/>
  </g>
  <g transform="translate(600, 280)">
    <circle cx="0" cy="-60" r="25" fill="#333"/>
    <ellipse cx="0" cy="20" rx="35" ry="50" fill="#333"/>
  </g>
  <g transform="translate(850, 310)">
    <circle cx="0" cy="-60" r="25" fill="#333"/>
    <ellipse cx="0" cy="20" rx="35" ry="50" fill="#333"/>
  </g>
  
  <!-- Overhead lights -->
  <ellipse cx="400" cy="100" rx="60" ry="20" fill="#222"/>
  <line x1="400" y1="0" x2="400" y2="80" stroke="#333" stroke-width="3"/>
  <ellipse cx="800" cy="100" rx="60" ry="20" fill="#222"/>
  <line x1="800" y1="0" x2="800" y2="80" stroke="#333" stroke-width="3"/>
  
  <text x="600" y="700" text-anchor="middle" font-family="Arial, sans-serif" font-size="24" fill="#666">Team Workshop Photo</text>
</svg>
