<svg xmlns="http://www.w3.org/2000/svg" viewBox="0 0 800 600" width="800" height="600">
  <!-- CubeSat Mission Placeholder -->
  <rect width="800" height="600" fill="#0a0a0a"/>
  
  <!-- Stars -->
  <circle cx="100" cy="100" r="1" fill="#fff" opacity="0.6"/>
  <circle cx="250" cy="80" r="1.5" fill="#fff" opacity="0.8"/>
  <circle cx="400" cy="50" r="1" fill="#fff" opacity="0.5"/>
  <circle cx="550" cy="90" r="2" fill="#fff" opacity="0.7"/>
  <circle cx="700" cy="70" r="1" fill="#fff" opacity="0.6"/>
  <circle cx="750" cy="180" r="1.5" fill="#fff" opacity="0.5"/>
  <circle cx="50" cy="250" r="1" fill="#fff" opacity="0.7"/>
  
  <!-- CubeSat body -->
  <g transform="translate(400, 280) rotate(-15)">
    <!-- Main cube -->
    <rect x="-50" y="-50" width="100" height="100" fill="#1a1a1a" stroke="#444" stroke-width="2"/>
    <!-- Solar panel left -->
    <rect x="-150" y="-30" width="90" height="60" fill="#1a3366" stroke="#333" stroke-width="1"/>
    <line x1="-140" y1="-30" x2="-140" y2="30" stroke="#444" stroke-width="1"/>
    <line x1="-110" y1="-30" x2="-110" y2="30" stroke="#444" stroke-width="1"/>
    <line x1="-80" y1="-30" x2="-80" y2="30" stroke="#444" stroke-width="1"/>
    <!-- Solar panel right -->
    <rect x="60" y="-30" width="90" height="60" fill="#1a3366" stroke="#333" stroke-width="1"/>
    <line x1="90" y1="-30" x2="90" y2="30" stroke="#444" stroke-width="1"/>
    <line x1="120" y1="-30" x2="120" y2="30" stroke="#444" stroke-width="1"/>
    <line x1="80" y1="-30" x2="80" y2="30" stroke="#444" stroke-width="1"/>
    <!-- Antenna -->
    <line x1="0" y1="-50" x2="0" y2="-80" stroke="#666" stroke-width="2"/>
    <circle cx="0" cy="-85" r="5" fill="none" stroke="#666" stroke-width="1"/>
  </g>
  
  <!-- Earth below -->
  <ellipse cx="400" cy="800" rx="600" ry="300" fill="#0066cc" opacity="0.2"/>
  
  <!-- Mission label -->
  <text x="400" y="480" text-anchor="middle" font-family="Arial, sans-serif" font-size="48" font-weight="bold" fill="#ffffff" letter-spacing="8">CUBESAT</text>
  <text x="400" y="520" text-anchor="middle" font-family="Arial, sans-serif" font-size="16" fill="#888888" letter-spacing="2">ORBITAL SATELLITE PROGRAM</text>
</svg>
