<svg version="1.1" id="Layer_1" xmlns="http://www.w3.org/2000/svg" xmlns:xlink="http://www.w3.org/1999/xlink" x="0px" y="0px" viewBox="0 0 471.9 79.7" style="enable-background:new 0 0 471.9 79.7;" xml:space="preserve">
 <style type="text/css">
  .st0{fill:#FFFFFF;}
 </style>
 <g>
  <g>
   <path class="st0" d="M464.6,37.4c-0.1-1.2-0.5-2.1-1.2-2.7s-1.5-1-2.6-1c-2.2,0-3.5,1.2-4,3.7H464.6z M471.8,49.3
			c-1.1,0.7-2.5,1.3-4,1.7c-1.6,0.4-3.2,0.6-5,0.6c-2.1,0-3.9-0.3-5.5-0.8c-1.6-0.5-3-1.3-4.2-2.3c-1.2-1-2-2.2-2.7-3.7
			s-0.9-3.1-0.9-4.9c0-1.7,0.3-3.3,0.8-4.8s1.4-2.7,2.4-3.7s2.2-1.8,3.7-2.4s3-0.9,4.7-0.9c1.7,0,3.2,0.3,4.5,0.8
			c1.3,0.5,2.5,1.2,3.4,2.2c0.9,1,1.7,2.1,2.2,3.5c0.5,1.4,0.8,2.9,0.8,4.6c0,1.1-0.1,1.9-0.3,2.7H457c0.8,2.5,2.9,3.8,6.4,3.8
			c0.9,0,2-0.1,3-0.4c1.1-0.2,2-0.5,2.9-0.9L471.8,49.3z M448.4,49.5c-1,0.7-2.2,1.2-3.5,1.5c-1.4,0.3-2.7,0.5-4.1,0.5
			c-2,0-3.7-0.3-5.2-0.8c-1.5-0.5-2.8-1.3-3.9-2.3s-1.9-2.2-2.4-3.7s-0.8-3-0.8-4.8c0-1.8,0.3-3.3,0.9-4.8s1.4-2.7,2.5-3.7
			s2.4-1.8,3.9-2.4s3.1-0.9,5-0.9c2.5,0,4.6,0.4,6.3,1.2l-1,6.5c-0.6-0.3-1.3-0.5-2.1-0.7c-0.9-0.1-1.6-0.2-2.1-0.2
			c-1.7,0-3.1,0.4-4.1,1.3c-1,0.9-1.5,2-1.5,3.5c0,1.5,0.5,2.7,1.5,3.5c1,0.8,2.4,1.3,4.2,1.3c0.5,0,1.2-0.1,1.9-0.2
			c0.7-0.1,1.3-0.3,1.9-0.5L448.4,49.5z M414.1,44.7c1.3,0,2.4-0.4,3.2-1.3s1.2-2.1,1.2-3.5s-0.4-2.6-1.2-3.5
			c-0.8-0.9-1.9-1.3-3.2-1.3s-2.4,0.4-3.2,1.3s-1.3,2.1-1.3,3.5s0.4,2.6,1.3,3.5S412.8,44.7,414.1,44.7 M412,51.6
			c-1.5,0-2.9-0.3-4.1-0.9c-1.2-0.6-2.3-1.4-3.2-2.4c-0.9-1-1.6-2.3-2.1-3.7s-0.8-3-0.8-4.7c0-1.7,0.3-3.2,0.8-4.7
			c0.5-1.4,1.2-2.7,2.2-3.8c0.9-1.1,2-1.9,3.3-2.5c1.3-0.6,2.6-0.9,4.1-0.9c1.3,0,2.6,0.3,3.7,0.9s2,1.4,2.6,2.4l0.1-2.6h7.2v22.1
			h-7.2l-0.1-2.5c-0.7,1-1.5,1.8-2.7,2.4C414.7,51.3,413.4,51.6,412,51.6 M387.3,44.7c1.3,0,2.4-0.4,3.2-1.3
			c0.8-0.9,1.3-2.1,1.3-3.5s-0.4-2.6-1.3-3.5c-0.9-0.9-1.9-1.3-3.2-1.3s-2.4,0.4-3.2,1.3s-1.2,2.1-1.2,3.5s0.4,2.6,1.2,3.5
			C384.9,44.3,386,44.7,387.3,44.7 M375.5,28.8h7.2l0.1,2.5c0.7-1,1.5-1.8,2.7-2.4s2.4-0.8,3.8-0.8c1.5,0,2.9,0.3,4.1,0.9
			c1.2,0.6,2.3,1.4,3.2,2.4c0.9,1,1.6,2.3,2.1,3.7s0.8,3,0.8,4.7c0,1.7-0.3,3.2-0.8,4.7c-0.5,1.4-1.2,2.7-2.2,3.8
			c-0.9,1.1-2,1.9-3.3,2.5s-2.6,0.9-4.1,0.9c-1.2,0-2.3-0.2-3.4-0.7c-1-0.5-1.9-1.1-2.5-1.9v11.6h-7.7L375.5,28.8L375.5,28.8z
			 M363.7,33.7c-1.6,0-2.4,0.4-2.4,1.3c0,0.5,0.2,0.8,0.7,1.1s1.3,0.6,2.6,0.9c2.7,0.7,4.6,1.6,5.8,2.8c1.2,1.2,1.8,2.8,1.8,4.8
			c0,2.2-0.9,4-2.6,5.2c-1.7,1.2-4.2,1.8-7.4,1.8c-1.7,0-3.4-0.2-5-0.6c-1.6-0.4-2.9-0.9-3.8-1.6l2.5-4.6c0.9,0.3,1.8,0.6,2.9,0.8
			c1.1,0.2,2,0.3,2.9,0.3c1.9,0,2.8-0.4,2.8-1.3c0-0.2,0-0.4-0.1-0.6c-0.1-0.2-0.2-0.3-0.5-0.5s-0.6-0.3-1-0.4
			c-0.4-0.1-1-0.3-1.6-0.5c-1.4-0.3-2.5-0.7-3.5-1.2c-1-0.5-1.7-1-2.3-1.6s-1-1.3-1.3-2.1c-0.3-0.8-0.4-1.7-0.4-2.7
			c0-2.2,0.8-4,2.5-5.2c1.7-1.2,4-1.9,7-1.9c1.5,0,3,0.2,4.4,0.5c1.5,0.3,2.6,0.7,3.6,1.3l-0.8,5.5c-1-0.5-2.1-0.9-3.4-1.2
			C365.9,33.9,364.8,33.7,363.7,33.7 M339,45.1c1.5,0,2.6-0.5,3.5-1.4c0.9-1,1.3-2.2,1.3-3.8c0-1.6-0.4-2.8-1.3-3.8s-2-1.5-3.5-1.5
			s-2.6,0.5-3.5,1.5c-0.9,1-1.3,2.2-1.3,3.8c0,1.6,0.4,2.9,1.3,3.8C336.3,44.6,337.5,45.1,339,45.1 M339,51.6
			c-1.8,0-3.4-0.3-4.9-0.9c-1.5-0.6-2.8-1.4-3.8-2.4c-1.1-1-1.9-2.3-2.5-3.7c-0.6-1.4-0.9-3-0.9-4.7c0-1.7,0.3-3.2,0.9-4.7
			c0.6-1.4,1.5-2.7,2.5-3.7c1.1-1.1,2.4-1.9,3.9-2.5s3.1-0.9,4.9-0.9c1.7,0,3.4,0.3,4.9,0.9c1.5,0.6,2.8,1.4,3.9,2.4
			s1.9,2.3,2.5,3.7s0.9,3,0.9,4.7c0,1.7-0.3,3.2-0.9,4.7c-0.6,1.4-1.5,2.7-2.5,3.7c-1.1,1.1-2.4,1.9-3.8,2.5
			C342.3,51.3,340.7,51.6,339,51.6 M309.7,28.8h7.5l0.1,3.3c0.5-1.2,1.3-2.1,2.2-2.8c0.9-0.6,2-1,3.3-1c1,0,1.8,0.2,2.5,0.5
			l-0.6,7.3c-0.4-0.2-0.9-0.3-1.4-0.4c-0.5-0.1-1-0.2-1.5-0.2c-3,0-4.5,2-4.5,5.9v9.5h-7.7V28.8z M298.8,37.4
			c-0.1-1.2-0.5-2.1-1.2-2.7s-1.5-1-2.6-1c-2.2,0-3.5,1.2-4,3.7H298.8z M305.9,49.3c-1.1,0.7-2.5,1.3-4,1.7c-1.6,0.4-3.2,0.6-5,0.6
			c-2.1,0-3.9-0.3-5.5-0.8c-1.6-0.5-3-1.3-4.2-2.3c-1.2-1-2-2.2-2.7-3.7c-0.6-1.5-0.9-3.1-0.9-4.9c0-1.7,0.3-3.3,0.8-4.8
			s1.4-2.7,2.4-3.7s2.2-1.8,3.7-2.4s3-0.9,4.7-0.9c1.7,0,3.2,0.3,4.5,0.8c1.4,0.5,2.5,1.2,3.4,2.2c0.9,1,1.7,2.1,2.2,3.5
			s0.8,2.9,0.8,4.6c0,1.1-0.1,1.9-0.3,2.7h-14.6c0.8,2.5,2.9,3.8,6.4,3.8c0.9,0,2-0.1,3-0.4c1.1-0.2,2-0.5,2.9-0.9L305.9,49.3z
			 M269.3,36.8l-3.7-11.1l-3.7,11.1H269.3z M261.4,18.3h8.9l12.8,32.6h-9l-2.5-7.5h-11.9l-2.5,7.5h-8.5L261.4,18.3z M230.2,33.7
			c-1.6,0-2.4,0.4-2.4,1.3c0,0.5,0.2,0.8,0.7,1.1s1.3,0.6,2.6,0.9c2.7,0.7,4.6,1.6,5.8,2.8c1.2,1.2,1.8,2.8,1.8,4.8
			c0,2.2-0.9,4-2.6,5.2s-4.2,1.8-7.4,1.8c-1.7,0-3.4-0.2-5-0.6c-1.6-0.4-2.9-0.9-3.8-1.6l2.5-4.6c0.9,0.3,1.8,0.6,2.9,0.8
			c1.1,0.2,2,0.3,2.9,0.3c1.9,0,2.8-0.4,2.8-1.3c0-0.2,0-0.4-0.1-0.6s-0.2-0.3-0.5-0.5s-0.6-0.3-1-0.4c-0.4-0.1-1-0.3-1.6-0.5
			c-1.3-0.3-2.5-0.7-3.5-1.2c-1-0.5-1.7-1-2.3-1.6c-0.6-0.6-1-1.3-1.3-2.1c-0.3-0.8-0.4-1.7-0.4-2.7c0-2.2,0.8-4,2.5-5.2
			c1.7-1.2,4-1.9,7-1.9c1.5,0,3,0.2,4.4,0.5c1.4,0.3,2.6,0.7,3.6,1.3l-0.8,5.5c-1-0.5-2.1-0.9-3.4-1.2
			C232.3,33.9,231.2,33.7,230.2,33.7 M194.9,28.8h7.6l0.1,2.7c0.6-1.1,1.4-1.9,2.5-2.5c1.1-0.6,2.4-0.9,3.8-0.9
			c2.5,0,4.5,0.8,5.8,2.4s1.9,3.9,1.9,7v13.5h-7.7v-12c0-2.6-1-3.9-3-3.9c-1.1,0-1.9,0.4-2.5,1.1c-0.6,0.7-0.8,1.8-0.8,3.2v11.7
			h-7.7L194.9,28.8L194.9,28.8z M182.2,28.8h7.7v22.1h-7.7V28.8z M186.1,25.3c-1.2,0-2.3-0.4-3.1-1.2s-1.2-1.8-1.2-2.9
			c0-1.2,0.4-2.2,1.2-3s1.9-1.2,3.1-1.2s2.3,0.4,3.1,1.2s1.2,1.8,1.2,3s-0.4,2.2-1.2,3C188.3,24.9,187.3,25.3,186.1,25.3
			 M168.9,18.3h7.7v32.6h-7.7V18.3z M156.3,18.3h7.7v32.6h-7.7V18.3z M140.9,45.1c1.5,0,2.6-0.5,3.5-1.4c0.9-1,1.3-2.2,1.3-3.8
			c0-1.6-0.4-2.8-1.3-3.8s-2-1.5-3.5-1.5s-2.6,0.5-3.5,1.5s-1.3,2.2-1.3,3.8c0,1.6,0.4,2.9,1.3,3.8
			C138.3,44.6,139.5,45.1,140.9,45.1 M140.9,51.6c-1.8,0-3.4-0.3-4.9-1c-1.5-0.6-2.8-1.5-3.9-2.6c-1.1-1.1-2-2.4-2.6-3.9
			s-0.9-3.1-0.9-4.8s0.3-3.2,0.9-4.6c0.6-1.4,1.5-2.6,2.6-3.6c1.1-1,2.4-1.8,3.9-2.3c1.5-0.5,3.1-0.8,4.9-0.8c1.7,0,3.4,0.3,4.9,0.9
			s2.8,1.4,3.9,2.4c1.1,1,1.9,2.3,2.5,3.7s0.9,3,0.9,4.7c0,1.7-0.3,3.2-0.9,4.7c-0.6,1.4-1.5,2.7-2.5,3.7c-1.1,1.1-2.4,1.9-3.8,2.5
			C144.3,51.3,142.7,51.6,140.9,51.6 M126.9,47.8c-1.5,1.2-3.3,2.1-5.3,2.7c-2,0.6-4.2,0.9-6.5,0.9c-2.6,0-5-0.4-7.1-1.1
			c-2.1-0.7-3.8-1.8-5.3-3.2s-2.6-3.2-3.4-5.2s-1.2-4.4-1.2-7.1c0-2.5,0.4-4.8,1.3-6.8c0.9-2.1,2.1-3.8,3.7-5.3
			c1.6-1.5,3.4-2.6,5.6-3.5s4.6-1.2,7.2-1.2c0.9,0,1.9,0.1,2.9,0.2c1,0.1,1.9,0.3,2.9,0.6c0.9,0.2,1.8,0.5,2.6,0.9s1.6,0.7,2.2,1
			l-3.5,6.7c-0.6-0.3-1.2-0.5-1.7-0.8c-0.5-0.2-1-0.4-1.5-0.6c-0.5-0.1-1-0.2-1.5-0.3s-1.2-0.1-1.9-0.1c-2.9,0-5.3,0.8-6.9,2.5
			c-1.7,1.6-2.5,3.9-2.5,6.8c0,1.4,0.2,2.6,0.6,3.7c0.4,1.1,1,2.1,1.8,2.9c0.8,0.8,1.7,1.4,2.8,1.9c1.1,0.4,2.3,0.7,3.7,0.7
			c1.3,0,2.6-0.2,3.8-0.7c1.2-0.4,2.4-1.1,3.5-1.9L126.9,47.8z M31.6,0.5c0.9-0.2,1.8-0.3,2.6-0.5l4.2,23.8
			c-0.9,0.1-1.8,0.2-2.7,0.5L31.6,0.5z M30.5,26.7c0.9-0.6,1.8-1.2,2.8-1.6l-12-20.9c-1,0.5-1.9,1-2.8,1.6L30.5,26.7z M23.7,39.8
			c0-0.9,0.1-1.8,0.2-2.6H0.1C0,38,0,38.9,0,39.7c0,0.8,0,1.6,0.1,2.3h23.8C23.8,41.3,23.7,40.6,23.7,39.8 M56,39.8
			C56,48.8,48.8,56,39.9,56c-8,0-14.6-5.8-15.9-13.4L1.5,50.8c0.5,1.8,1.1,3.4,1.8,5.1l22.3-8.2L7.5,63.1c1.2,1.6,2.4,3.1,3.8,4.6
			l17-14.4L17.1,72.7c1.8,1.2,3.6,2.3,5.6,3.3l10.4-18.2l-3.6,20.8c2.2,0.6,4.5,1,6.9,1.2l3.4-19.4l3.4,19.4
			c2.5-0.2,4.9-0.6,7.2-1.3l-3.2-18l9.1,15.9c2.5-1.1,4.8-2.5,7-4.1L55,57.6l12.8,10.8c2-2,3.8-4.2,5.4-6.6l-11.4-9.6l14,5.1
			c1.3-2.7,2.3-5.5,3-8.5l-12.2-4.5h13c0.2-1.5,0.3-3,0.3-4.6c0-1.8-0.1-3.5-0.4-5.3H55.1C55.7,36.2,56,38,56,39.8 M24.1,36.2
			c0.3-1.4,0.8-2.8,1.5-4L3.2,23.9c-0.6,1.3-1.1,2.7-1.5,4.1L24.1,36.2z M69.9,13.4L51.6,28.8c0.4,0.5,0.9,1,1.3,1.5l18.3-15.4
			C70.7,14.4,70.3,13.9,69.9,13.4 M60.8,5.6c-0.6-0.4-1.3-0.8-2-1.2l-12,20.9c0.7,0.3,1.3,0.7,2,1.1L60.8,5.6z M28.9,28L10.6,12.5
			c-0.8,0.9-1.7,1.9-2.4,2.9l18.3,15.4C27.2,29.8,28,28.8,28.9,28 M41.5,23.8c0.8,0.1,1.6,0.2,2.4,0.4L48,0.4
			c-0.8-0.2-1.6-0.3-2.4-0.4L41.5,23.8z">
   </path>
  </g>
 </g>
</svg>